PathFileType	4	(X/Y/Z)	SUBJ36_2_walk_RCNL2025.trc
DataRate	CameraRate	NumFrames	NumMarkers	Units	OrigDataRate	OrigDataStartFrame	OrigNumFrames
100	100	12	25	mm	100	50	399
Frame#	Time	R_Shoulder			L_Shoulder			C7			J_Notch			R_Elbow			L_Elbow			R_Wrist			L_Wrist			R_Asis			L_Asis			Sacral			Thoracic			Sternum			R_Thigh_Lateral			R_Knee_Lateral			R_Shank_Lateral			R_Ankle_Lateral			R_Heel			R_Toe			L_Thigh_Lateral			L_Knee_Lateral			L_Shank_Lateral			L_Ankle_Lateral			L_Heel			L_Toe		
		X1	Y1	Z1	X2	Y2	Z2	X3	Y3	Z3	X4	Y4	Z4	X5	Y5	Z5	X6	Y6	Z6	X7	Y7	Z7	X8	Y8	Z8	X9	Y9	Z9	X10	Y10	Z10	X11	Y11	Z11	X12	Y12	Z12	X13	Y13	Z13	X14	Y14	Z14	X15	Y15	Z15	X16	Y16	Z16	X17	Y17	Z17	X18	Y18	Z18	X19	Y19	Z19	X20	Y20	Z20	X21	Y21	Z21	X22	Y22	Z22	X23	Y23	Z23	X24	Y24	Z24	X25	Y25	Z25
50	0.49000000	-1082.714966	1341.948486	-258.341339	-1063.486084	1308.480225	-603.825684	-1142.801758	1393.500488	-426.722778	-999.094421	1292.155396	-419.701935	-1176.386108	1031.548218	-182.097809	-1061.551270	988.992981	-645.280762	-1136.990173	797.949799	-141.375957	-920.258484	808.795074	-618.407349	-1017.867615	902.433228	-291.126495	-1008.404114	895.907837	-523.034546	-1228.578979	885.146667	-395.750793	-1217.843628	1132.285767	-417.471344	-972.097473	1110.497559	-402.289551	-983.086487	498.414276	-243.429077	-951.444824	447.979523	-288.529602	-905.932739	243.747742	-249.462692	-846.868103	80.580719	-319.004547	-884.500305	42.805088	-365.655304	-724.886353	86.204201	-344.161652	-1222.030396	536.177368	-590.563721	-1242.007446	463.621490	-515.550415	-1350.541748	274.468933	-534.034241	-1406.584595	116.664429	-463.862457	-1442.324829	99.217476	-405.036530	-1288.698608	49.870125	-459.069305
51	0.50000000	-1071.343262	1341.115234	-256.363342	-1052.821655	1308.305298	-601.993713	-1131.856201	1392.911987	-424.559082	-988.312744	1291.989868	-418.414490	-1163.908081	1030.146606	-180.750137	-1050.184082	988.882080	-643.853577	-1123.094055	796.556702	-141.124893	-908.589325	808.940491	-617.141022	-1005.093262	901.719788	-290.481110	-995.679382	895.182312	-522.128418	-1215.774292	884.636719	-394.404175	-1205.883911	1131.406982	-415.661285	-960.034668	1110.413574	-401.031586	-969.112061	498.440826	-243.664185	-939.004578	447.285217	-289.188629	-896.235107	242.753799	-251.162994	-839.501282	79.254807	-320.859741	-878.124817	42.554726	-367.354828	-717.792542	82.365730	-346.305847	-1210.411011	536.140137	-590.336060	-1230.730225	463.588074	-516.220886	-1343.666992	277.498108	-535.185486	-1403.456543	120.423676	-465.169495	-1439.524414	104.028763	-406.368835	-1287.536377	49.651310	-459.408691
52	0.51000000	-1059.816895	1340.391602	-254.319153	-1042.045166	1308.274902	-600.070312	-1120.762573	1392.523315	-422.298096	-977.335449	1292.013184	-417.006927	-1151.188599	1028.859131	-179.316086	-1038.972656	988.928650	-642.447571	-1108.923767	795.280457	-140.829594	-897.241028	809.090942	-615.879395	-992.213379	901.240051	-289.775146	-982.851257	894.528503	-521.130066	-1202.870605	884.296875	-393.093628	-1193.784790	1130.742920	-413.820038	-947.782654	1110.544189	-399.727966	-954.834229	498.829102	-243.682297	-926.508301	446.794983	-289.660767	-887.405212	241.864761	-252.717010	-833.613342	77.925690	-322.521271	-873.356567	42.494625	-368.878082	-712.184326	77.978279	-348.109589	-1198.197632	535.956421	-590.045593	-1218.661743	463.362793	-516.847595	-1336.261597	280.753693	-536.405273	-1399.766113	124.466156	-466.484802	-1436.075928	109.247055	-407.688538	-1286.230347	49.365452	-459.694305
53	0.52000000	-1048.153687	1339.802734	-252.225800	-1031.147095	1308.406616	-598.070984	-1109.521729	1392.359741	-419.961456	-966.164856	1292.234375	-415.462982	-1138.221558	1027.715820	-177.807495	-1027.918701	989.152588	-641.071655	-1094.486328	794.152649	-140.497326	-886.229095	809.264160	-614.629730	-979.268677	901.050293	-288.989319	-969.956665	893.965576	-520.022034	-1189.912354	884.134460	-391.850525	-1181.572754	1130.322388	-411.976349	-935.373108	1110.901245	-398.388123	-940.476379	499.530823	-243.486740	-914.043518	446.544128	-289.930695	-879.230469	241.149582	-254.029831	-828.970154	76.700150	-323.921997	-869.907898	42.652161	-370.158813	-707.820984	73.330399	-349.556122	-1185.309692	535.568970	-589.721741	-1205.711426	462.895355	-517.413086	-1328.205078	284.201996	-537.666748	-1395.402710	128.804230	-467.788177	-1431.857788	114.910690	-408.970245	-1284.767578	49.037464	-459.907684
54	0.53000000	-1036.378906	1339.379517	-250.103165	-1020.119812	1308.722412	-596.014709	-1098.144043	1392.438599	-417.575348	-954.823120	1292.656372	-413.777252	-1125.005981	1026.750732	-176.236557	-1017.026733	989.579529	-639.735352	-1079.786133	793.211304	-140.135635	-875.569336	809.481079	-613.399597	-966.305359	901.197632	-288.109192	-957.040100	893.509644	-518.791931	-1176.946411	884.153259	-390.702301	-1169.276855	1130.163452	-410.161133	-922.846863	1111.489624	-397.019196	-926.268250	500.487549	-243.081635	-901.715576	446.550446	-289.985626	-871.521790	240.645325	-255.018829	-825.356262	75.659454	-325.019958	-867.499695	43.023769	-371.160095	-704.477600	68.713997	-350.654266	-1171.667358	534.919495	-589.393066	-1191.802734	462.138062	-517.913818	-1319.356689	287.787872	-538.938416	-1390.251465	133.448242	-469.058533	-1426.751221	121.057220	-410.190796	-1283.127808	48.714241	-460.035858
55	0.54000000	-1024.524414	1339.154785	-247.972794	-1008.960144	1309.244751	-593.921875	-1086.649902	1392.765747	-415.168488	-943.348999	1293.275146	-411.955841	-1111.548584	1025.998413	-174.615646	-1006.306030	990.237244	-638.451172	-1064.825256	792.497131	-139.751438	-865.275452	809.762848	-612.196167	-953.373596	901.710632	-287.127563	-944.151001	893.170044	-517.434509	-1164.020020	884.351807	-389.668365	-1156.927002	1130.270508	-408.404266	-910.252502	1112.304688	-395.624420	-912.431885	501.629883	-242.473175	-889.648743	446.805603	-289.817993	-864.145447	240.349457	-255.626160	-822.582764	74.849342	-325.802551	-865.879333	43.575378	-371.874481	-701.955200	64.391502	-351.435791	-1157.199463	533.954041	-589.084839	-1176.879028	461.048279	-518.358093	-1309.565308	291.436066	-540.189758	-1384.201050	138.406067	-470.274231	-1420.647949	127.718933	-411.330139	-1281.277954	48.467850	-460.075165
56	0.55000000	-1012.625732	1339.158936	-245.856567	-997.670837	1309.990967	-591.812927	-1075.068115	1393.333618	-412.770264	-931.792297	1294.078491	-410.015839	-1097.865723	1025.488159	-172.957321	-995.771973	991.150574	-637.234924	-1049.604126	792.048645	-139.350498	-855.356812	810.127380	-611.025970	-940.524292	902.591064	-286.045410	-931.340332	892.946838	-515.953186	-1151.179443	884.722778	-388.757141	-1144.553101	1130.634399	-406.731323	-897.643677	1113.330322	-394.202942	-899.171753	502.878937	-241.671982	-877.984558	447.272339	-289.427399	-857.044434	240.223953	-255.828018	-820.488708	74.278114	-326.285736	-864.832336	44.250477	-372.319672	-700.085327	60.568405	-351.947571	-1141.850586	532.628357	-588.816345	-1160.907349	459.592133	-518.760620	-1298.682617	295.056396	-541.396729	-1377.151367	143.682602	-471.412994	-1413.456909	134.916916	-412.370728	-1279.163818	48.395687	-460.034180
57	0.56000000	-1000.717712	1339.414551	-243.775696	-986.262451	1310.968872	-589.707458	-1063.433105	1394.122559	-410.408569	-920.206360	1295.045898	-407.983490	-1083.984253	1025.239624	-171.274246	-985.445251	992.335815	-636.104370	-1034.123383	791.896332	-138.937199	-845.816406	810.585815	-609.894623	-927.805420	903.809814	-284.871307	-918.656250	892.829041	-514.359924	-1138.469116	885.252380	-387.963989	-1132.183716	1131.234497	-405.160675	-885.075500	1114.539551	-392.751221	-886.668884	504.151184	-240.694489	-866.876221	447.888367	-288.821350	-850.243774	240.208725	-255.638062	-818.937927	73.922272	-326.508881	-864.186584	44.982384	-372.531433	-698.728943	57.376099	-352.241333	-1125.585815	530.914673	-588.598816	-1143.880127	457.749420	-519.135864	-1286.578003	298.552368	-542.545776	-1369.019165	149.279236	-472.451233	-1405.108521	142.653839	-413.295135	-1276.702148	48.616272	-459.934875
58	0.57000000	-988.831116	1339.931519	-241.750183	-974.754211	1312.172729	-587.624695	-1051.779419	1395.103271	-408.108490	-908.640747	1296.150391	-405.892273	-1069.939697	1025.258545	-169.578949	-975.349609	993.794189	-635.075439	-1018.385437	792.058624	-138.514778	-836.649780	811.139709	-608.807037	-915.258484	905.308289	-283.619659	-906.140747	892.796936	-512.674133	-1125.929688	885.922302	-387.271454	-1119.846924	1132.042725	-403.701813	-872.599792	1115.895752	-391.265686	-875.074585	505.366211	-239.563034	-856.476440	448.576447	-288.014526	-843.836975	240.239044	-255.103500	-817.815491	73.737030	-326.525635	-863.811584	45.706612	-372.555206	-697.773621	54.867496	-352.365143	-1108.394775	528.808960	-588.433594	-1125.813965	455.520782	-519.492371	-1273.151733	301.832245	-543.634155	-1359.741821	155.192307	-473.362823	-1395.555786	150.905746	-414.083038	-1273.771118	49.259949	-459.812103
59	0.58000000	-976.988525	1340.703613	-239.798721	-963.173706	1313.581787	-585.583923	-1040.137329	1396.241211	-405.891510	-897.134949	1297.360840	-403.780609	-1055.775146	1025.535645	-167.883469	-965.507751	995.507568	-634.157104	-1002.396454	792.538879	-138.085930	-827.845215	811.779114	-607.767700	-902.916443	907.005676	-282.307892	-893.826538	892.826477	-510.920807	-1113.597046	886.712463	-386.650696	-1107.569580	1133.027954	-402.354492	-860.260620	1117.356445	-389.746246	-864.502747	506.455688	-238.304184	-846.920288	449.257324	-287.027588	-837.957947	240.260345	-254.295395	-817.025085	73.668472	-326.393616	-863.612854	46.370438	-372.438721	-697.128540	53.024761	-352.358093	-1090.296265	526.338684	-588.310913	-1106.749878	452.935242	-519.829102	-1258.344849	304.820404	-544.665283	-1349.277832	161.410049	-474.118988	-1384.772705	159.614090	-414.709015	-1270.205200	50.454697	-459.710724
60	0.59000000	-965.202515	1341.708374	-237.938477	-951.555298	1315.160889	-583.605530	-1028.528564	1397.500977	-403.775574	-885.713562	1298.644653	-401.689789	-1041.537598	1026.047119	-166.198883	-955.936768	997.436768	-633.346863	-986.167480	793.325562	-137.653526	-819.384613	812.483185	-606.780609	-890.802124	908.810242	-280.953369	-881.735596	892.895813	-509.127716	-1101.499756	887.604431	-386.064667	-1095.377930	1134.160156	-401.109222	-848.090332	1118.877563	-388.199799	-855.020020	507.371185	-236.946487	-838.307800	449.862518	-285.886200	-832.745117	240.236725	-253.296082	-816.487305	73.664253	-326.165375	-863.524902	46.938286	-372.226440	-696.720520	51.775936	-352.249603	-1071.341431	523.568054	-588.209900	-1086.750732	450.056030	-520.134766	-1242.145508	307.467316	-545.641724	-1337.604370	167.907715	-474.690002	-1372.751221	168.679184	-415.142883	-1265.794312	52.308456	-459.681030
61	0.60000000	-953.475708	1342.908203	-236.184631	-939.937561	1316.864014	-581.710999	-1016.964783	1398.849243	-401.775024	-874.385010	1299.970337	-399.661377	-1027.274170	1026.757324	-164.534988	-946.644470	999.523438	-632.628601	-969.715271	794.394287	-137.221359	-811.245575	813.221527	-605.849701	-878.928406	910.632141	-279.571045	-869.878357	892.992859	-507.322906	-1089.657471	888.584961	-385.472168	-1083.296021	1135.412476	-399.948639	-836.106812	1120.417236	-386.642426	-846.637390	508.088837	-235.518524	-830.689453	450.343750	-284.620422	-828.307983	240.152618	-252.187057	-816.138184	73.681107	-325.882874	-863.503296	47.393055	-371.955994	-696.489746	51.015762	-352.061157	-1051.618164	520.599548	-588.099487	-1065.900024	446.982544	-520.389282	-1224.590210	309.756042	-546.558533	-1324.712891	174.641113	-475.049286	-1359.498291	177.957611	-415.354431	-1260.289062	54.890602	-459.772461
